<?xml version="1.0" encoding="utf-8"?>
<!-- Generator: Adobe Illustrator 27.0.1, SVG Export Plug-In . SVG Version: 6.00 Build 0)  -->
<svg version="1.1" id="Layer_1" xmlns="http://www.w3.org/2000/svg" xmlns:xlink="http://www.w3.org/1999/xlink" x="0px" y="0px"
	 viewBox="0 0 800 800" style="enable-background:new 0 0 800 800;" xml:space="preserve">
<style type="text/css">
	.st0{fill:#FFFFFF;}
</style>
<g>
	<g>
		<g>
			<path d="M600.8,543.39c0.3-27.49-0.46-54.98-1.02-82.46c-0.12-5.67-1.17-11.37-2.13-16.98c-0.58-3.42-2.82-5.69-6.55-5.59
				c-6.45,0.16-12.91,0.52-19.35,0.77c-3.14,0.13-6.3,0.5-9.39,0.25c-7.53-0.61-15-1.7-22.52-2.24c-6.94-0.49-13.93-0.34-20.88-0.76
				c-11.23-0.67-22.45-1.99-33.71-2.24c-18.58-0.41-37.19-0.38-55.79-0.18c-13.23,0.15-26.46,0.78-39.68,1.38
				c-17.14,0.77-34.27,2.07-51.43,2.46c-19.16,0.43-38.35,0.44-57.52-0.02c-16.39-0.38-32.76-1.84-49.15-2.58
				c-9.38-0.43-18.79-0.33-28.2-0.52c-12.54-0.28-25.09-0.95-37.64-0.87c-19.4,0.1-38.75,1.22-57.85,5.14
				c-1.64,0.34-3.84,0.19-5.19-0.67c-3.79-2.42-4.77,0.22-5.2,2.83c-0.7,4.36-1.14,8.77-1.2,13.17
				c-0.34,23.81-0.87,47.62-0.65,71.44c0.21,21.5,1.21,43,2.07,64.49c0.33,8.09,1.54,16.15,1.81,24.24
				c0.86,25.61,1.56,51.21,2.12,76.82c0.37,17,0.27,34.01,0.7,50.99c0.18,7.38,1.08,14.74,1.9,22.08c0.33,2.96,1.2,5.94,5.1,6.22
				c5.71,0.4,11.39,1.04,17.11,1.23c16.09,0.56,32.2,0.79,48.29,1.42c21.8,0.87,43.58,2.88,65.38,2.84
				c42.75-0.07,85.5-1.27,128.25-1.93c28.02-0.41,56.04-0.89,84.08-0.99c19.97-0.07,39.96,0.53,59.95,0.65
				c20.72,0.12,41.43,0.03,62.15,0.03v-0.87c2.4,0,4.82-0.03,7.22,0c2.59,0.03,5.19,0.09,7.78,0.13c6.42,0.12,9.29-2.86,9.11-9.41
				c-0.31-11.6-0.8-23.22-0.84-34.82c-0.12-25.68-0.03-51.36,0-77.04c0.01-10.89-0.22-21.8,0.13-32.68
				C598.84,593.89,600.51,568.64,600.8,543.39z M591.28,537.02c-0.19,15.68-0.18,31.35-0.65,47.03
				c-0.68,22.15-1.85,44.29-2.53,66.44c-0.27,8.77,0.37,17.56,0.3,26.33c-0.07,10.92-0.79,21.83-0.65,32.72
				c0.18,13.29,1.01,26.55,1.42,39.83c0.15,4.42-0.28,8.83-0.18,13.25c0.09,3.32-2.25,2.31-3.81,2.31
				c-17.59,0.06-35.16,0.03-52.75,0.01h-33.86c-27.95,0.01-55.89-0.15-83.84,0.06c-33.8,0.25-67.59,0.86-101.39,1.26
				c-29.21,0.34-58.41,1.11-87.62,0.76c-21.22-0.25-42.42-2.22-63.66-3.04c-15.34-0.59-30.7-0.53-46.04-0.9
				c-0.77-0.01-2.13-1.27-2.16-2c-1.04-21.22-1.97-42.44-2.86-63.66c-0.4-9.56-0.78-19.13-0.99-28.69
				c-0.21-10.27,0.03-20.54-0.31-30.79c-0.47-14.46-1.39-28.9-1.93-43.36c-0.49-13.29-0.68-26.58-1.08-39.88
				c-0.61-21.17-1.27-42.35-1.91-63.52c-0.02-0.37-0.06-0.74-0.07-1.11c-0.41-10.14-0.41-10.3,9.53-10.55
				c18.82-0.46,37.65-0.74,56.47-1.07c22.69-0.42,45.39-0.71,68.07-1.25c30.14-0.7,60.28-1.94,90.43-2.3
				c30.5-0.37,61.01,0.18,91.52,0.1c18.83-0.04,37.65-0.65,56.49-0.74c13.26-0.06,26.52,0.39,39.79,0.52
				c16.05,0.15,32.1,0.09,48.14,0.36c7.19,0.12,14.36,0.93,21.55,1.2c4.02,0.13,5.36,1.81,5.29,5.82
				C591.61,500.45,591.49,518.73,591.28,537.02z"/>
		</g>
		<g>
			<path d="M163.01,457.22c-0.1,6.08-5.89,12.11-11.56,12.04c-3.99-0.05-8.32-4.76-8.26-8.99c0.08-5.81,5.43-10.08,12.41-9.89
				C160.76,450.52,163.08,452.67,163.01,457.22z"/>
			<path d="M120.89,467.2c-5.33-0.05-8.17-2.94-8.08-8.22c0.07-4.12,4.31-8.17,8.69-8.32c3.96-0.14,8.3,4.19,8.16,8.12
				C129.46,464.18,126.27,467.25,120.89,467.2z"/>
		</g>
		<path class="st0" d="M617.62,637.69c-8.42-11.79-32.57-92.65-35.94-116.8c-3.37-24.15-14.6-68.51-14.6-68.51
			s-26.95-14.6-35.38-14.6c-8.42,0-28.64-2.25-33.13,2.81c-4.49,5.05-18.42,27.09-25.83,25.27c-7.41-1.82-4.49-14.6-4.49-14.6
			s-7.86,3.37-12.92-1.12c-5.05-4.49-8.42-15.72-8.42-15.72s-8.42,1.68-11.23-1.68c-2.81-3.37-2.25-15.16,4.49-26.39
			c6.74-11.23,26.95-25.83,26.95-25.83s-10.67-7.3-21.9-3.93c-11.23,3.37-27.51,12.35-33.69,7.86c-6.18-4.49,8.42-31.45,39.87-28.64
			c31.45,2.81,60.08,11.23,60.08,11.23s64.58,8.98,84.79,19.65c20.22,10.67,55.59,66.26,72.44,92.65
			c16.85,26.39,29.76,76.93,29.76,76.93L617.62,637.69z"/>
		<path class="st0" d="M64.51,416.45c8.98,11.23,19.65,25.83,81.98,30.88c62.33,5.05,123.54,11.79,134.21,8.99
			c10.67-2.81,33.69-5.62,45.48,0c11.79,5.61,37.06,28.08,43.8,23.58c6.74-4.49,5.61-11.79,5.61-11.79s17.41-6.74,20.78-11.79
			c3.37-5.05,1.68-19.65,1.12-23.58c-0.56-3.93,6.18-14.6,1.68-23.02c-4.49-8.42-29.2-30.32-47.17-33.69
			c-17.97-3.37-125.22-14.04-125.22-14.04s-41.55-7.3-53.91-13.48c-12.35-6.18-39.87-17.41-39.87-17.41L64.51,416.45z"/>
		<g>
			<path d="M128.44,207.18c-21.15,0.28-39.28-6.49-52.14-23.5c-11.84-15.66-18.31-33.63-18.13-53.61
				c0.27-31.33,14.91-53.42,43.21-66.31c11.67-5.31,24.25-7.77,37.07-8.29c7.14-0.29,14.35-0.43,21.44,0.28
				c10.62,1.06,19.62,6.2,27.62,13.08c14.77,12.72,23.88,28.57,25.42,48.17c0.63,8.01,0.04,16.12,0.19,24.17
				c0.03,1.55,0.73,3.17,1.42,4.62c6.3,13.34,12.7,26.64,18.97,39.99c1.43,3.05,1.58,6.3-1.24,8.66c-2.87,2.4-5.99,1.4-8.69-0.54
				c-7.36-5.28-14.73-10.54-21.88-16.1c-2.91-2.26-4.39-2.46-6.91,0.76c-13.48,17.21-32,24.89-53.19,27.18
				C137.2,206.21,132.82,206.7,128.44,207.18z M218.47,178.69c0.32-0.24,0.64-0.47,0.97-0.71c-4.76-11.26-9.54-22.5-14.26-33.78
				c-0.54-1.3-1.31-2.86-1.03-4.08c2.64-11.74,1.05-23.3-2.68-34.32c-7.99-23.57-25.83-41.84-54.42-42.08
				c-15.95-0.13-31.58,2.74-45.99,10.37c-22.22,11.77-33.24,30.58-33.34,55.3c-0.06,15.73,4.52,30.66,13.21,44
				c7.65,11.74,17.54,20.24,32.14,22.36c10.81,1.57,21.34,1.78,32.25-0.01c17.64-2.89,32.2-10.28,43.12-24.55
				c5.96-7.8,9.1-8.26,16.95-2.44C209.78,172.01,214.11,175.37,218.47,178.69z"/>
			<path d="M376.99,247.32c-2.77-0.83-5.6-1.52-8.29-2.57c-0.74-0.29-1.59-1.72-1.45-2.44c0.14-0.67,1.49-1.47,2.37-1.55
				c2.73-0.24,5.51,0.05,8.23-0.23c9.18-0.96,15.67-6.7,22.09-12.61c1.06-0.98,2.73-1.29,4.12-1.91c-0.06,1.65,0.36,3.51-0.25,4.92
				C399.99,239.68,387.85,246.77,376.99,247.32z"/>
			<path d="M513.35,171.32c-1.01,1.92-1.84,3.96-3.06,5.74c-2.69,3.92-5.46,7.81-8.44,11.51c-1.34,1.66-3.1,3.15-4.97,4.13
				c-0.95,0.5-3.28,0.15-3.75-0.59c-0.68-1.08-0.9-3.41-0.18-4.26c5.09-6,10.41-11.81,15.8-17.55c0.71-0.75,2.21-0.88,3.37-1
				C512.4,169.27,512.81,170.4,513.35,171.32z"/>
			<path d="M360.65,155.37c-2.92,4.43-5.59,8.69-8.55,12.75c-0.41,0.56-2.66,0.58-3.32,0c-1.11-0.96-2.6-3.05-2.22-3.89
				c1.84-4.11,4.11-8.06,6.59-11.82c0.52-0.78,2.74-1.03,3.88-0.64C358.19,152.15,358.98,153.63,360.65,155.37z"/>
			<path d="M447.47,152.43c-0.01,6.26-3.16,11.13-7.24,12.36c-3.59,1.08-5.85-0.25-4.98-3.86c0.94-3.91,3.2-7.59,5.38-11.06
				c0.56-0.89,3.3-1.27,4.44-0.69C446.39,149.85,447.05,151.82,447.47,152.43z"/>
			<path d="M128.44,135.76c-3.29-4.47-6.04-8.59-9.19-12.39c-4.58-5.54-16.11-4.45-19.39,1.85c-0.56,1.07,0.02,3.32,0.86,4.43
				c7.18,9.59,14.37,19.18,21.89,28.5c9.07,11.25,12.01,10.86,20.19-1.3c4.73-7.02,42.65-54.42,35.37-60.83
				c-2.71-2.38-4.59-0.29-6.78,1.17C155.31,107.91,140.57,120.11,128.44,135.76z"/>
		</g>
	</g>
	<path d="M750.71,446.74c-10.32-21.88-19.23-44.48-32.93-64.6c-9.99-14.68-20.39-29.08-30.56-43.64
		c-8.39-12-18.68-22.05-31.15-29.66c-11.34-6.92-23-13.3-34.44-20.07c-1.27-0.75-3.03-2.81-2.76-3.7
		c3.21-10.42,1.95-20.92,0.71-31.35c-1.58-13.26-4.22-26.32-11.18-38c-16.09-27.01-39.97-42.42-70.92-46.87
		c-6.21-0.89-11.85-1.59-13.41-9.07c-0.28-1.36-1.67-2.46-2.19-3.81c-0.52-1.35-1.05-2.94-0.82-4.3
		c1.97-11.56,1.65-23.14-3.42-33.67c-0.16-0.34-0.33-0.66-0.5-1c-1.96-10.63-8.64-28.13-21.73-55.2c-0.29-0.6-0.58-1.17-0.87-1.71
		c8.95-3.58,19.92-9.08,15.24-13.12c-7.52-6.5-18.46,4.91-18.46,4.91s5.31-7.02,1.55-14.69c-2.51-5.12-10.06,3.88-14.79,10.41
		c-10.68-3.03-28.51-5.07-61.35-10.71c-120.53-20.7-78.68,36.06-78.68,49.82c0,0.65,0.08,1.24,0.23,1.77
		c-6.54,7.65-11.21,16.65-13.38,27.45c-0.23,1.16-1.98,2.56-3.28,2.9c-17.93,4.74-28.08,16.62-30.68,34.57
		c-1.23,8.48-2.07,17.52-0.48,25.8c2.67,13.92,12.23,22.97,25.84,27.06c2.96,0.89,2.95,2.23,3.25,4.55
		c0.93,7.31,1.82,14.65,3.39,21.84c1.4,6.43,0.2,8.33-6.5,8.06c-1.27-0.05-2.54-0.01-3.81,0.03c-26.62,0.78-53.24,1.39-79.85,2.44
		c-12.9,0.51-25.86,1.12-38.61,2.97c-19.64,2.86-39.28,6.14-58.62,10.54c-13.77,3.14-27.39,7.61-40.48,12.96
		c-18.32,7.48-31.23,22.08-43.85,36.73c-7.25,8.41-12.77,17.82-14.63,28.84c-1.28,7.55-1.66,15.27-2.16,22.94
		c-0.81,12.54,0.58,25.15,6.56,36.04c11.8,21.49,29.53,37.35,52.03,47.2c14.74,6.45,30.75,7.44,46.62,8.55
		c15.42,1.08,30.85,2.14,46.26,3.4c9.91,0.81,19.79,2.01,29.7,2.95c14.11,1.34,28.23,2.61,42.35,3.91c3.12,0.29,6.27,0.97,9.35,0.76
		c11.06-0.75,22.13-1.5,33.13-2.82c16.37-1.96,30.64,1.96,42.95,13.21c4.34,3.97,9.21,7.48,14.23,10.55
		c5.11,3.12,10.74,3.8,16.37,0.69c4.89-2.7,5.57-7.28,5.37-10.66c3.84-1.48,8.19-1.81,9.67-4.04c2.64-3.96,5.25-6.67,9.74-8.83
		c5.09-2.45,5.06-8.51,4.84-13.81c-0.33-7.84-4.74-15.48-0.77-23.58c0.77-1.58,0.08-4.02-0.29-6c-1.97-10.46-8.45-17.84-16.7-23.95
		c-11.11-8.23-23.42-14.22-36.58-18.16c-9.1-2.73-18.48-4.91-27.89-6.15c-9.61-1.26-19.4-1.22-29.13-1.45
		c-5.03-0.12-7.03-1.7-5.15-6.89c0.5-1.4,0.01-3.34-0.49-4.88c-5.97-18.41-11.96-36.81-18.18-55.13c-0.57-1.68-2.74-2.81-4.17-4.2
		c-0.51,1.97-1.06,3.93-1.5,5.91c-0.11,0.51,0.01,1.12,0.17,1.65c2.66,8.83,5.47,17.61,7.97,26.48c2.61,9.22,5.2,18.47,7.27,27.82
		c1.27,5.77-1.28,8.22-6.64,7.51c-7.81-1.03-15.63-1.92-23.41-3.14c-19.69-3.09-39.37-6.24-59-9.62c-3.77-0.65-7.44-2.21-10.99-3.74
		c-13.89-6-27.68-12.24-41.59-18.19c-1.92-0.82-4.31-0.74-6.48-0.7c-2.89,0.05-3.24,1.99-1.43,3.56c2.44,2.12,5.25,3.97,8.19,5.3
		c7.9,3.56,16.06,6.55,23.91,10.2c11.02,5.13,21.57,11.09,34.31,11.49c5.66,0.18,11.26,2.51,17.34,3.97
		c-20.12,14.77-33.16,50.91-24.93,80.51c-1.54-0.07-2.99-0.08-4.43-0.21c-9.7-0.89-19.39-1.96-29.11-2.67
		c-11.77-0.86-23.6-1.02-35.34-2.18c-28.98-2.85-48.99-20.12-65.33-42.39c-6.81-9.28-8.66-20.63-9.08-31.98
		c-0.47-12.73-1.53-25.77,4.73-37.49c9.87-18.48,24.62-32.73,41.61-44.61c12.17-8.5,26.37-12.41,40.64-15.47
		c17.64-3.78,35.42-6.96,53.21-9.96c11.43-1.93,22.95-3.76,34.49-4.42c17.15-0.98,34.36-0.83,51.54-1.27
		c9.98-0.26,19.96-0.58,29.93-1.14c5.62-0.32,11.22-1.16,16.61-1.75c-1.98,7.98-4.8,15.72-5.7,23.67
		c-2.19,19.4,1.57,37.63,14.07,53.21c9.76,12.16,23.98,16.79,38.11,21.34c1.3,0.42,3,0.11,4.37-0.31c1.44-0.45,2.72-1.44,4.07-2.2
		c-0.95-1.2-1.65-2.93-2.88-3.5c-5.18-2.36-10.5-4.4-15.79-6.51c-12.39-4.94-22.6-12.04-28.29-24.9
		c-5.46-12.33-6.37-25.14-4.95-38.06c0.97-8.78,3.87-17.35,6-26.41c1.35,0.86,1.79,0.98,1.94,1.26c0.78,1.46,1.55,2.94,2.22,4.45
		c7.96,17.79,21.21,30.47,39.25,37.04c8.24,3,15.1,6.19,21.1,12.91c6.93,7.76,16.93,11.47,26.66,15.25
		c5.93,2.31,11.15,1.98,16.4-0.97c13.86-7.78,28.17-14.9,41.37-23.67c19.35-12.87,37.95-26.89,56.76-40.56
		c6.13-4.45,12.07-9.19,17.78-14.17c1.47-1.28,2.93-4.54,2.29-5.88c-1.41-2.94-4.2-1.34-6.12,0.1c-7.09,5.31-14.1,10.75-21.11,16.17
		c-9.47,7.33-18.91,14.7-29.48,22.92c-1.01-6.94-3.29-12.9-2.38-18.34c1.9-11.41,5.48-22.53,8.34-33.78
		c0.72-2.84,1.89-4.54,5.28-5.31c17.37-3.97,24.2-16.65,22.91-33.43c-0.36-4.66,1.45-4.72,4.31-4.03
		c6.44,1.56,12.87,3.24,19.13,5.38c17.98,6.16,32.9,16.68,43.92,32.29c10.49,14.85,14.08,31.94,15.11,49.66
		c0.32,5.6-0.51,11.29-1.11,16.91c-0.33,3.1-2.34,3.84-5.25,2.73c-3.97-1.5-8.03-2.74-12-4.26c-0.75-0.29-1.79-1.39-1.72-2
		c0.49-4.16-2.17-4.15-4.86-3.7c-3.26,0.55-6.64,1.03-9.67,2.27c-13.31,5.45-26.91,10.4-39.64,17
		c-13.59,7.04-26.33,15.71-39.39,23.77c-1.14,0.7-1.83,2.12-2.73,3.21c1.14,0.79,2.22,1.71,3.44,2.36
		c4.55,2.45,7.81-0.71,11.04-2.93c19.57-13.47,40.29-24.67,62.56-33.07c4.4-1.66,8.22-1.38,12.27-0.3
		c21.46,5.73,40.72,16.3,59.74,27.4c13.57,7.91,25.77,17.34,34.92,30.32c8.95,12.7,17.86,25.43,26.92,38.04
		c15.67,21.81,25.48,46.62,36.69,70.75c10.16,21.87,15.52,44.83,14.16,68.74c-1.11,19.46-3.89,38.9-7.17,58.14
		c-2.8,16.37-7.42,32.42-16.84,46.56c-9.75,14.63-22.14,26-39.79,29.78c-22.77,4.88-44.42,0.99-64.81-10.1
		c-1.4-0.76-2.78-2.02-3.58-3.39c-3.99-6.86-8.56-13.53-11.47-20.85c-4-10.06-6.39-20.76-10.02-30.98
		c-5.95-16.74-10.63-33.76-13.32-51.33c-0.49-3.23-0.94-4.82,3.76-4.13c10,1.46,20.16,2.52,30.25,2.54
		c12.11,0.02,22.65-4.84,31.09-13.69c6.34-6.65,12.52-13.45,19.33-20.8c6.47,17.87,13.02,35.71,19.37,53.63
		c2.95,8.32,5.38,16.82,8.32,25.15c0.59,1.67,2.43,2.9,3.69,4.33c0.83-2.03,1.66-4.06,2.47-6.1c0.06-0.14-0.07-0.36-0.12-0.53
		c-2.32-9.48-4.64-18.96-6.96-28.45c-0.51-2.07-1.03-4.15-1.79-7.2c5.32,2.01,9.7,3.77,14.16,5.28c1.01,0.34,2.3-0.16,3.47-0.28
		c-0.18-1.03,0.02-2.42-0.59-3.04c-5.35-5.5-9.82-12.34-18.41-13.28c-2.9-0.32-3.88-2.1-4.74-4.52
		c-7.78-21.97-16.82-43.39-28.21-63.78c-16.1-28.81-35.14-55.21-61.02-76.19c-0.7-0.57-0.79-2.88-0.24-3.83
		c2.9-4.94,6.16-9.67,9.18-14.54c3.87-6.26,7.75-12.53,11.32-18.96c0.71-1.28,0.03-3.33-0.01-5.03c-1.41,0.66-3.1,1.01-4.18,2.02
		c-9.73,9.04-17.39,19.67-22.98,31.67c-1.68,3.61-3.32,3.38-6.24,2.07c-16.54-7.41-33.9-11.24-52.03-11.77
		c-4.42-0.13-8.97-0.31-13.21-1.42c-10.51-2.76-20.71-6.82-31.32-9.01c-18.63-3.85-37.28-9.2-56.63-5.16
		c-15.05,3.14-25.27,12.56-31.74,26.11c-2.3,4.83-0.41,8.63,4.66,10.73c5.93,2.45,11.87,2.09,17.68-0.8
		c4.3-2.14,8.68-4.12,13.08-6.03c5.7-2.47,11.63-2.09,18.04-1.01c-15.45,7.68-21.66,21.92-27.13,36.59
		c-1.27,3.39-1.91,7.14-2.13,10.76c-0.36,5.94,2.2,8.63,8.3,8.29c4.19-0.23,5.63,1.38,6.53,5.13c1.45,6.06,8.56,12.76,13.62,12.18
		c4.12-0.47,5.07,0.45,4.96,4.3c-0.06,1.92,0.84,3.98,1.67,5.81c2.65,5.89,7.62,7.53,13.19,4.31c2.06-1.19,4.01-2.72,5.65-4.44
		c4.09-4.27,8.16-8.59,11.9-13.17c4.21-5.15,8.29-9.89,16.07-7.61c1.58,0.46,3.62-0.47,5.41-0.92c8.2-2.06,15.99-1.65,23.54,2.7
		c4.95,2.85,10.06,5.77,15.48,7.38c7.49,2.23,10.69,5.98,11.84,14.22c2.9,20.8,7.41,41.37,11.24,62.04
		c3.73,20.11,6.98,40.34,14.5,59.54c0.81,2.06,1.53,4.18,1.96,6.34c3.24,16.51,9.48,31.72,18.34,46.08
		c3.87,6.27,8.1,10.41,15.17,13.25c12.79,5.14,25.51,9.78,39.38,10.33c14.54,0.57,28.82-0.52,41.88-7.93
		c19.77-11.21,32.24-28.28,39.86-49.31c8.56-23.63,12.25-48.26,14.3-73.1C767.53,503.66,763.78,474.45,750.71,446.74z
		 M211.28,421.18c3.29-14.45,10.12-26.88,19.28-38.25c3.69-4.58,7.08-9.44,11.08-13.73c1.14-1.22,3.96-1.4,5.93-1.21
		c6.04,0.59,12.02,1.83,18.07,2.37c12.86,1.16,25.73,2.66,38.62,2.91c22.57,0.44,43.77,5.29,63.62,16.28
		c8.14,4.51,16.12,9.08,22.18,16.26c3.47,4.1,6.2,8.68,6.13,15.46c-14.81-16.56-32.74-24.4-52.98-27.7c-1.81-0.3-3.7-0.4-5.53-0.25
		c-0.87,0.07-1.66,0.97-2.49,1.49c0.68,0.94,1.17,2.39,2.08,2.73c3.78,1.41,7.73,2.36,11.53,3.72c15.34,5.5,29.42,12.98,39.69,26.15
		c4.49,5.75,6.11,12.58,6.46,19.69c0.08,1.61-1.09,3.29-1.68,4.93c-0.95-1.16-2.14-2.2-2.8-3.51
		c-5.63-11.08-15.21-18.28-25.53-24.02c-9.93-5.52-20.76-9.48-31.34-13.78c-2.43-0.99-5.42-0.84-8.14-0.72c-1.03,0.05-2,1.49-3,2.3
		c0.85,0.74,1.59,1.82,2.58,2.17c15.51,5.34,29.88,13,42.71,23.07c5.8,4.55,10.19,10.95,14.98,16.71c0.93,1.12,1.5,3.52,0.92,4.67
		c-0.86,1.72-2.77,3.06-4.52,4.09c-0.41,0.24-2.49-1.24-2.88-2.28c-5.54-14.56-17.51-22.59-30.38-29.35
		c-8.96-4.7-18.31-8.87-28.79-9.32c-2.75-0.12-5.11,0.21-4.79,3.35c0.12,1.25,2.22,2.91,3.72,3.32
		c14.06,3.86,26.95,10.03,38.73,18.61c8.15,5.94,13.09,13.84,15.43,23.59c0.87,3.62-0.47,5.38-3.74,4.47
		c-3.79-1.06-7.61-2.67-10.84-4.87c-5.48-3.74-10.35-8.38-15.78-12.2c-9.82-6.91-20.51-10.2-32.86-8.83
		c-13.74,1.52-27.62,1.82-41.44,2.63c-1.29,0.08-2.7,0.31-3.87-0.07c-10.81-3.53-22.03-3.35-33.17-4.04
		c-4.31-0.27-8.59-1.22-12.88-1.87C213.91,437.89,209.18,430.38,211.28,421.18z M318.43,198.68c-12.61-2.97-21.32-15.04-22.15-32.7
		c1.04-5.23,2.15-13.25,4.31-20.98c1.95-6.99,7.66-11.22,13.83-14.42c21.17-11,44.1-4.1,53.7,16.09c0.91,1.91,0.47,4.47,0.62,6.73
		c0.12,1.77-0.52,4.13,0.39,5.22c3,3.63,1.94,7.44,0.9,11.03C363.86,191.14,338.53,203.4,318.43,198.68z M391.08,292.84
		c0.22-0.49,0.45-0.98,0.67-1.47c0.88-0.06,1.77-0.14,2.65-0.17c11.68-0.3,11.68-0.3,14.63,13.07
		C402.53,300.13,396.81,296.49,391.08,292.84z M521.55,190.94c-2.65,10.07-14.48,17.95-24.73,16.7c-1.98-0.24-3.74-2.08-5.68-3.02
		c-1.08-0.52-2.32-0.71-3.48-1.05c-0.19,1.17-0.96,2.76-0.47,3.44c3.04,4.18,0.52,7.93-0.42,11.9c-2.5,10.57-4.88,21.18-7.14,31.81
		c-1.42,6.67,1.6,11.81,6.31,16.17c3.54,3.27,3.63,6.23-0.41,8.6c-18.96,11.13-38.05,22.03-57.02,33.15
		c-3.68,2.16-6.73,0.95-9.84-0.83c-0.65-0.37-0.9-1.46-1.33-2.22c0.7-0.36,1.4-1.01,2.11-1.02c14.31-0.35,21.27-10.4,27.73-21.04
		c2.77-4.56,5.27-9.29,7.81-13.98c0.63-1.16,0.94-2.5,1.4-3.75c-13.81,7.79-27.9,13.53-42.99,16.66c-10.85,2.25-21.8,4.3-32.85,1.38
		c-17.79-4.71-31.68-14.78-40.89-30.85c-5.81-10.14-10.42-20.79-12.66-32.35c-0.17-0.9-0.5-1.78-0.6-2.69
		c-0.97-8.77-0.84-9.36,7.55-10.74c12.57-2.07,23.42-7.34,32.71-16.13c-2.38,6.92-7.45,11.19-13.37,14.7
		c-7.11,4.21-7.42,5.91-1.83,12.12c3.1,3.43,6.32,6.8,9.86,9.75c1.39,1.16,3.79,1.13,5.73,1.65c-0.56-2.15-0.6-4.7-1.82-6.38
		c-2.04-2.81-4.73-5.2-7.35-7.53c-2.55-2.27-2.14-3.52,0.7-5.22c12.78-7.65,17.53-19.86,18.9-33.94c0.5-5.15,1.24-10.27,1.79-15.42
		c0.22-2.04,0.78-2.74,3.16-2.38c9.49,1.41,15.26,6.73,18.76,15.56c4.81,12.13,14.21,19.95,26.43,23.54
		c29.75,8.73,53.82-10.62,58.22-34.44c4.95-26.78-11.48-53.63-43.51-49.85c-18.31,2.16-40.07,17.14-42.69,36.82
		c-0.59,4.38-1.76,4.59-5.53,2.85c-3.58-1.65-7.7-2.59-11.65-2.87c-3.25-0.23-4.81-1.2-6.09-4.19
		c-7.9-18.49-22.14-28.06-42.15-28.88c-2.88-0.12-2.82-1.71-2.12-3.09c3-5.9,6.13-11.76,9.64-17.37c0.59-0.95,3.3-0.89,5-0.77
		c14.53,0.99,29.05,2.77,43.59,2.96c9.69,0.13,19.42-1.87,29.12-3.06c6.61-0.81,13.22-1.66,19.82-2.53
		c13.83,6.4,29.19,16.45,42.64,24.6c0.71,1.5,1.42,3,2.12,4.5c1,2.14,1.84,4.45,2.21,6.77c1.54,9.85,2.98,19.72,4.2,29.62
		c0.28,2.28-0.43,4.69-0.81,7.02c-0.35,2.18-1.15,4.32-1.22,6.49c-0.05,1.43,0.83,2.9,1.3,4.35c1.05-1.04,2.36-1.91,3.11-3.13
		c2.6-4.22,4.68-8.8,7.56-12.8c3.83-5.32,11.01-4.91,15.67-0.26c4.98,4.98,6.18,11.21,6.67,17.57
		C523.03,182.14,522.66,186.73,521.55,190.94z M406.77,148.49c3.02-10.15,10.41-19.06,20.97-23.65c12.69-5.52,25.43-7.72,37.87,0.97
		c8.85,6.18,13.4,15.03,13.57,25.38c0.27,16.55-6.26,29.92-21.98,37.15c-4.91,2.26-10.5,3.03-15.77,4.48
		C419.37,193.05,399.73,172.2,406.77,148.49z M425.32,380.25c-2.18,1.38-5.12,1.97-7.76,2.11c-3.68,0.2-4.48-1.73-2.43-4.86
		c6.98-10.64,16.53-16.94,29.32-18.68c15.33-2.08,30.08,1.27,44.92,3.94c5.35,0.96,10.61,2.44,16.22,3.76
		c-9.14,1.57-17.71,2.21-25.72,4.67c-6.36,1.95-11.93,2.98-18.71,1.46C448.39,369.78,436.39,373.26,425.32,380.25z M583,499.26
		c-3.18-14.95-6.63-29.84-9.91-44.77c-0.87-3.96-2.97-6.08-6.93-7.61c-9.28-3.59-18.18-8.16-27.42-11.88
		c-3.1-1.25-6.77-1.67-10.15-1.53c-8.29,0.33-16.59,0.97-24.82,2c-2.68,0.34-5.72,1.71-7.63,3.59c-4.87,4.79-9.18,10.15-13.74,15.26
		c-1.6,1.8-3.11,3.71-4.95,5.24c-1.16,0.96-2.83,1.31-4.27,1.93c-0.67-1.66-1.97-3.34-1.9-4.97c0.4-9.38,1.98-18.39,9.49-25.16
		c1.49-1.35,2.65-3.09,3.82-4.75c5.57-7.92,12.35-13.95,22.42-15.52c2.83-0.44,5.52-1.98,8.13-3.32c0.31-0.16,0.02-2.84-0.66-3.26
		c-1.13-0.7-2.86-0.87-4.25-0.66c-20.86,3.17-36.28,13.68-44.75,33.46c-0.58,1.36-1.01,2.79-1.7,4.09
		c-3.4,6.33-6.05,6.37-10.12,0.24c-2.78-4.19-2.59-7.92,0.34-12.19c4.5-6.54,8.62-13.36,13.4-19.68c5.4-7.14,12.4-11.93,21.65-13.23
		c2.49-0.35,4.69-2.7,7.02-4.14c-2.63-0.84-5.32-2.55-7.87-2.37c-9.9,0.71-18.03,5.54-24.19,13.07
		c-5.59,6.84-10.17,14.5-15.66,21.43c-1.9,2.4-5.02,4.13-7.92,5.37c-2.18,0.93-4.14-0.3-3.27-3.24c2.73-9.2,5.33-18.58,12.48-25.5
		c11.56-11.2,24.48-20.62,40.64-23.6c9.75-1.79,19.83-1.79,29.76-2.59c15.06,0.34,29.85,1.78,44.59,4.84
		c22.13,4.6,39.79,15.91,54.44,32.93c15.39,17.89,28.91,36.96,40.14,57.72c1.85,3.43,1.83,5.82-0.85,8.28
		c-15.71,14.42-32.92,25.83-55.17,26.62c-4.96,0.18-9.95-0.29-14.92-0.42C584.56,504.84,583.68,502.45,583,499.26z"/>
</g>
</svg>
